<svg width="512" height="512" viewBox="0 0 512 512" fill="none" xmlns="http://www.w3.org/2000/svg">
  <!-- Background: Abstract Book/Paper Shape -->
  <path d="M96 64C96 46.3269 110.327 32 128 32H384C419.346 32 448 60.6538 448 96V416C448 451.346 419.346 480 384 480H128C110.327 480 96 465.673 96 448V64Z" fill="#F0B857" fill-opacity="0.2"/>
  
  <!-- Main Shape: Q variant with Magnifying Glass metaphor -->
  <path d="M264 96C188.888 96 128 156.888 128 232C128 307.112 188.888 368 264 368C295.483 368 324.47 357.298 347.437 339.203L388.118 379.884C394.366 386.132 404.496 386.132 410.744 379.884C416.992 373.636 416.992 363.506 410.744 357.258L370.067 316.581C388.952 292.968 400 263.683 400 232C400 156.888 339.112 96 264 96ZM160 232C160 174.562 206.562 128 264 128C321.438 128 368 174.562 368 232C368 289.438 321.438 336 264 336C206.562 336 160 289.438 160 232Z" fill="#D67052"/>
  
  <!-- Detail: Book Lines -->
  <rect x="160" y="192" width="32" height="80" rx="16" fill="#D67052" fill-opacity="0.2"/>
</svg>





